# xmcd
#
# Track frame offsets: 
#        150
#        13162
#        23316
#        36335
#        48023
#        55185
#        67188
#        82238
#        97404
#        111800
#        134929
#        152429
#        165317
#        178764
#        190021
#
# Disc length: 2742 seconds
#
# Revision: 3
# Processed by: cddbd v1.5.2PL0 Copyright (c) Steve Scherf et al.
# Submitted via: ExactAudioCopy v1.3
#
DISCID=ca0ab40f
DTITLE=Fleetwood Mac - Black Magic Woman - The Best Of 1
DYEAR=2009
DGENRE=Blues
TTITLE0=Black Magic Woman
TTITLE1=Long Grey Mare
TTITLE2=Rollin' Man
TTITLE3=Lazy Poker Blues
TTITLE4=Jigsaw Puzzle Blues
TTITLE5=Coming Home
TTITLE6=Got to Move
TTITLE7=No Place to Go
TTITLE8=The Sun Is Shining
TTITLE9=World's in a Tangle
TTITLE10=If You Be My Baby
TTITLE11=My Baby's Good to Me
TTITLE12=My Heart Beat like a Hammer
TTITLE13=Like Crying
TTITLE14=Need Your Love Tonight
EXTD=YEAR: 2009
EXTT0=
EXTT1=
EXTT2=
EXTT3=
EXTT4=
EXTT5=
EXTT6=
EXTT7=
EXTT8=
EXTT9=
EXTT10=
EXTT11=
EXTT12=
EXTT13=
EXTT14=
PLAYORDER=
